{"title":"Toy Story 3.2010.DVDScr.2D.XviD-MAGNET","uid":5711138,"size":720279018,"categoryP":"video","categoryS":"movies","magnet":"?xt=urn:btih:c1c158c47eae20f9e73cdaf3187baec1fc3ba687&amp;dn=Toy+Story+3.2010.DVDScr.2D.XviD-MAGNET&amp;tr=udp%3A%2F%2Ftracker.openbittorrent.com%3A80&amp;tr=udp%3A%2F%2Fopen.demonii.com%3A1337&amp;tr=udp%3A%2F%2Ftracker.coppersurfer.tk%3A6969&amp;tr=udp%3A%2F%2Fexodus.desync.com%3A6969","seeders":0,"leechers":1,"uploader":null,"files":3,"time":1279901774,"description":"Video\nFormat : xvid\nCodec ID : xvid\nDuration : 1h 41mn\nBit rate : 810 Kbps\nWidth : 720 pixels\nHeight : 320 pixels\nDisplay aspect ratio : 2.25:1\nFrame rate : 29.970 fps\nBits/(Pixel*Frame) : 0.117\nStream size : 589 MiB (86%)\n\nAudio\nID : 1\nFormat : MPEG Audio\nFormat version : Version 1\nFormat profile : Layer 3\nCodec ID : 55\nCodec ID/Hint : MP3\nDuration : 1h 34mn\nBit rate mode : Constant\nBit rate : 128 Kbps\nChannel(s) : 2 channels\nSampling rate : 48.0 KHz\nStream size : 86.2 MiB (13%)\nAlignment : Aligned on interleaves\nInterleave, duration : 36 ms (1.08 video frame)\nInterleave, preload duration : 504 ms\nWriting library : LAMELAME_MAJOR_VERSI\n &lt;a href=&quot;\nhttp://img230.imageshack.us/img230/5316/vlcsnap2010072301h49m03.png&quot; rel=&quot;nofollow&quot; target=&quot;_NEW&quot;&gt;\nhttp://img230.imageshack.us/img230/5316/vlcsnap2010072301h49m03.png&lt;/a&gt;\n\n\nENJOY AND PLEASE SEED AND LEAVE COMMENTS","torrent":{"xt":"urn:btih:c1c158c47eae20f9e73cdaf3187baec1fc3ba687","amp;dn":"Toy+Story+3.2010.DVDScr.2D.XviD-MAGNET","amp;tr":["udp%3A%2F%2Ftracker.openbittorrent.com%3A80","udp%3A%2F%2Fopen.demonii.com%3A1337","udp%3A%2F%2Ftracker.coppersurfer.tk%3A6969","udp%3A%2F%2Fexodus.desync.com%3A6969"],"infoHash":"c1c158c47eae20f9e73cdaf3187baec1fc3ba687","infoHashBuffer":{"type":"Buffer","data":[193,193,88,196,126,174,32,249,231,60,218,243,24,123,174,193,252,59,166,135]},"announce":[],"urlList":[]}}